HIERARCHY
ROOT Hips
{
    OFFSET 0.000000 0.000000 0.000000
    CHANNELS 6 Xposition Yposition Zposition Zrotation Xrotation Yrotation
    JOINT Spine
    {
        OFFSET -0.000000 14.517291 0.000000
        CHANNELS 3 Zrotation Xrotation Yrotation
        JOINT Spine1
        {
            OFFSET -0.000000 37.558300 0.000000
            CHANNELS 3 Zrotation Xrotation Yrotation
            JOINT Neck
            {
                OFFSET -0.000000 37.404057 3.400369
                CHANNELS 3 Zrotation Xrotation Yrotation
                JOINT Head
                {
                    OFFSET -0.000000 24.785618 -3.540803
                    CHANNELS 3 Zrotation Xrotation Yrotation
                    End Site
                    {
                        OFFSET -0.000000 35.408028 0.000000
                    }
                }
            }
            JOINT LeftShoulder
            {
                OFFSET 6.992933 33.973492 -0.192664
                CHANNELS 3 Zrotation Xrotation Yrotation
                JOINT LeftArm
                {
                    OFFSET 21.527611 0.000000 0.000000
                    CHANNELS 3 Zrotation Xrotation Yrotation
                    JOINT LeftForeArm
                    {
                        OFFSET 56.353916 0.000000 0.000000
                        CHANNELS 3 Zrotation Xrotation Yrotation
                        JOINT LeftHand
                        {
                            OFFSET 47.774071 0.000000 0.000000
                            CHANNELS 3 Zrotation Xrotation Yrotation
                            End Site
                            {
                                OFFSET 26.556021 0.000000 0.000000
                            }
                        }
                    }
                }
            }
            JOINT RightShoulder
            {
                OFFSET -7.065357 33.973492 -0.192664
                CHANNELS 3 Zrotation Xrotation Yrotation
                JOINT RightArm
                {
                    OFFSET -21.527611 0.000000 0.000000
                    CHANNELS 3 Zrotation Xrotation Yrotation
                    JOINT RightForeArm
                    {
                        OFFSET -56.353916 0.000000 0.000000
                        CHANNELS 3 Zrotation Xrotation Yrotation
                        JOINT RightHand
                        {
                            OFFSET -47.774071 0.000000 0.000000
                            CHANNELS 3 Zrotation Xrotation Yrotation
                            End Site
                            {
                                OFFSET -26.556021 0.000000 0.000000
                            }
                        }
                    }
                }
            }
        }
    }
    JOINT LeftUpLeg
    {
        OFFSET 17.704014 0.000000 0.000000
        CHANNELS 3 Zrotation Xrotation Yrotation
        JOINT LeftLeg
        {
            OFFSET -0.000000 -81.181816 0.000000
            CHANNELS 3 Zrotation Xrotation Yrotation
            JOINT LeftFoot
            {
                OFFSET -0.000000 -62.821102 0.000000
                CHANNELS 3 Zrotation Xrotation Yrotation
                JOINT LeftToeBase
                {
                    OFFSET -0.000000 -11.507608 26.556021
                    CHANNELS 3 Zrotation Xrotation Yrotation
                    End Site
                    {
                        OFFSET -0.000000 0.000000 7.081605
                    }
                }
            }
        }
    }
    JOINT RightUpLeg
    {
        OFFSET -17.704014 0.000000 0.000000
        CHANNELS 3 Zrotation Xrotation Yrotation
        JOINT RightLeg
        {
            OFFSET -0.000000 -81.181816 0.000000
            CHANNELS 3 Zrotation Xrotation Yrotation
            JOINT RightFoot
            {
                OFFSET -0.000000 -62.821102 0.000000
                CHANNELS 3 Zrotation Xrotation Yrotation
                JOINT RightToeBase
                {
                    OFFSET -0.000000 -11.507608 26.556021
                    CHANNELS 3 Zrotation Xrotation Yrotation
                    End Site
                    {
                        OFFSET -0.000000 0.000000 7.081605
                    }
                }
            }
        }
    }
}
MOTION
Frames:    4
Frame Time:    0.008333
14.277275    156.571991    -89.810852    -0.942343    0.471039    34.994022    -0.964870    0.383020    -11.115331    -12.079785    -3.065845    -4.031107    6.142634    12.154239    -9.710146    15.983232    -7.171062    -7.096130    12.245695    -3.550610    -18.796673    -19.896168    -32.517319    -30.002125    -14.940069    -42.455112    -84.806786    -40.162582    -39.860367    -44.424179    -19.051916    0.750117    -13.094575    19.971540    16.050524    9.001995    0.000000    0.000000    0.000000    0.000000    0.000000    0.000000    18.246433    -1.602534    19.742041    -11.706424    27.231806    -9.074005    2.288463    -17.786844    49.358128    0.000000    0.000000    0.000000    -16.894554    -27.355000    -8.295135    10.997689    24.468204    -11.339894    1.851054    9.682990    -16.792000    0.000000    0.000000    0.000000    
14.302698    156.555298    -89.833076    -0.926583    0.479032    34.984375    -0.984897    0.374010    -11.120088    -12.039847    -3.073296    -4.032418    6.108252    12.140793    -9.710502    16.026320    -7.185850    -7.085065    12.250904    -3.566914    -18.781839    -19.873232    -32.596703    -29.979605    -14.942302    -42.404068    -84.820633    -40.125069    -39.839867    -44.380009    -19.037334    0.770913    -13.121248    20.928396    16.226624    9.254591    18.782598    -22.242817    8.904245    -33.632294    -43.156937    67.873581    18.233414    -1.621003    19.698973    -11.728120    27.282028    -9.075264    2.166837    -17.907793    49.381104    0.000000    0.000000    0.000000    -16.914253    -27.371689    -8.352671    10.970937    24.490791    -11.315835    1.759879    9.727300    -16.717743    0.000000    0.000000    0.000000    
14.325708    156.538254    -89.855400    -0.915977    0.485474    34.975639    -0.992944    0.368039    -11.124871    -12.016751    -3.087434    -4.034858    6.105315    12.143112    -9.712396    16.049278    -7.222400    -7.077089    12.269905    -3.593999    -18.774792    -19.851334    -32.660980    -29.941568    -15.001692    -42.355572    -84.894325    -40.097103    -39.858723    -44.373249    -19.009945    0.800420    -13.141887    20.985130    16.242338    9.280002    18.783470    -22.273266    8.915763    -33.573978    -43.171150    67.937546    18.228132    -1.644487    19.663580    -11.743369    27.341518    -9.091274    1.986820    -18.069019    49.421288    0.000000    0.000000    0.000000    -16.924120    -27.392668    -8.387035    10.935843    24.515905    -11.324100    1.668917    9.777781    -16.602001    0.000000    0.000000    0.000000    
14.350557    156.523285    -89.869347    -0.898825    0.482971    34.967960    -1.000626    0.368764    -11.129117    -11.995073    -3.102557    -4.037309    6.116663    12.153001    -9.713611    16.044031    -7.258520    -7.074367    12.274636    -3.604476    -18.763178    -19.820253    -32.721825    -29.920498    -15.000292    -42.308453    -84.901070    -40.180920    -39.755722    -44.444340    -18.979067    0.830096    -13.152761    21.012150    16.089039    9.307118    18.860783    -22.208639    8.869700    -33.521191    -43.133682    68.069832    18.225231    -1.646302    19.599670    -11.778650    27.379078    -9.067982    1.770781    -18.236588    49.448460    0.000000    0.000000    0.000000    -16.932346    -27.399303    -8.403844    10.914880    24.536182    -11.319235    1.583364    9.805119    -16.537140    0.000000    0.000000    0.000000    
